<svg width="44" height="60" viewBox="0 0 44 60" fill="none" xmlns="http://www.w3.org/2000/svg">
<path d="M23.583 0.0599365C24.196 0.137937 24.812 0.197936 25.42 0.296936C28.5263 0.746148 31.498 1.86442 34.1298 3.57448C36.7616 5.28454 38.9908 7.54561 40.6633 10.2015C42.3358 12.8573 43.4117 15.8446 43.8167 18.957C44.2217 22.0693 43.9461 25.2325 43.009 28.2279C41.7312 32.3535 39.9717 36.3141 37.767 40.0279C33.8482 46.7289 29.305 53.0447 24.198 58.8909C23.004 60.2809 21.843 60.2839 20.652 58.8909C14.8252 52.2732 9.76604 45.0174 5.57103 37.2619C3.58845 33.7281 2.14772 29.9166 1.29703 25.9549C0.713904 23.0184 0.745146 19.993 1.38878 17.0692C2.03241 14.1454 3.27449 11.3865 5.03681 8.96636C6.79912 6.54619 9.04347 4.51715 11.6285 3.00703C14.2136 1.49691 17.0833 0.538422 20.057 0.191936C20.457 0.141936 20.857 0.103937 21.262 0.0599365H23.583ZM22.35 32.6509C24.5064 32.6773 26.6223 32.0642 28.4305 30.8889C30.2387 29.7136 31.658 28.0289 32.5094 26.0475C33.3607 24.0661 33.6059 21.8769 33.2139 19.7562C32.8219 17.6356 31.8103 15.6787 30.3069 14.1326C28.8034 12.5864 26.8756 11.5205 24.7668 11.0693C22.6579 10.6181 20.4627 10.8018 18.4582 11.5974C16.4538 12.393 14.73 13.7646 13.5045 15.5392C12.2791 17.3138 11.607 19.4116 11.573 21.5679C11.5488 23.0044 11.8088 24.4314 12.3381 25.767C12.8673 27.1027 13.6553 28.3205 14.6569 29.3504C15.6584 30.3804 16.8537 31.2022 18.174 31.7687C19.4943 32.3351 20.9135 32.6349 22.35 32.6509Z" fill="white"/>
</svg>
