<svg width="53" height="52" viewBox="0 0 53 52" fill="none" xmlns="http://www.w3.org/2000/svg">
<path d="M39.569 51.676C38.322 51.403 37.052 51.1961 35.819 50.8571C33.3012 50.1079 30.8881 49.0439 28.637 47.6901C22.2733 43.9295 16.5745 39.1433 11.771 33.525C8.57996 29.941 5.87009 25.9561 3.71001 21.671C2.33045 19.0477 1.41402 16.206 1.00103 13.271C0.673011 11.43 0.93115 9.53255 1.73903 7.84607C2.03386 7.30827 2.3987 6.81187 2.82403 6.37C4.30002 4.835 5.85801 3.351 7.35601 1.823C7.83151 1.34362 8.39721 0.963146 9.0205 0.703491C9.64378 0.443836 10.3123 0.310181 10.9875 0.310181C11.6627 0.310181 12.3312 0.443836 12.9545 0.703491C13.5778 0.963146 14.1435 1.34362 14.619 1.823C16.952 4.104 19.247 6.41401 21.535 8.73901C22.0118 9.18703 22.3918 9.728 22.6515 10.3285C22.9113 10.929 23.0453 11.5762 23.0453 12.2305C23.0453 12.8847 22.9113 13.5321 22.6515 14.1326C22.3918 14.7331 22.0118 15.274 21.535 15.722C21.089 16.124 20.5737 16.4416 20.014 16.6591C19.3294 16.8834 18.6993 17.2483 18.1641 17.7305C17.6288 18.2127 17.2003 18.8014 16.906 19.459C16.5053 20.3683 16.4346 21.389 16.706 22.345C17.5175 25.0481 18.9712 27.5148 20.943 29.5341C22.8748 31.7434 25.2158 33.5581 27.837 34.8781C28.9667 35.5444 30.2699 35.8577 31.579 35.778C32.4447 35.7201 33.2765 35.4193 33.9789 34.91C34.6813 34.4008 35.2258 33.7038 35.55 32.899C35.9113 31.7961 36.6178 30.8386 37.565 30.168C38.4953 29.5688 39.6037 29.3085 40.7034 29.4309C41.8032 29.5533 42.8272 30.0509 43.603 30.84C46.0097 33.1873 48.3864 35.5667 50.733 37.978C51.6479 38.9412 52.1497 40.2241 52.131 41.5524C52.1123 42.8807 51.5747 44.149 50.633 45.0861C49.098 46.6431 47.533 48.1791 45.99 49.7371C44.9169 50.7872 43.5196 51.4429 42.026 51.597C41.899 51.6236 41.7735 51.657 41.65 51.697L39.569 51.676Z" fill="white"/>
</svg>
